<svg width="88" height="88" viewBox="0 0 88 88" fill="none" xmlns="http://www.w3.org/2000/svg">
<path d="M62.3337 14.6666H25.667C19.5919 14.6666 14.667 19.5915 14.667 25.6666V62.3333C14.667 68.4084 19.5919 73.3333 25.667 73.3333H62.3337C68.4088 73.3333 73.3337 68.4084 73.3337 62.3333V25.6666C73.3337 19.5915 68.4088 14.6666 62.3337 14.6666Z" stroke="#E8EFFA" stroke-width="4" stroke-linecap="round" stroke-linejoin="round"/>
<path d="M14.667 54.9999L29.3337 40.3333C31.0059 38.7242 32.9028 37.8771 34.8337 37.8771C36.7646 37.8771 38.6614 38.7242 40.3337 40.3333L58.667 58.6666" stroke="#E8EFFA" stroke-width="4" stroke-linecap="round" stroke-linejoin="round"/>
<path d="M51.333 51.3333L54.9997 47.6667C56.6719 46.0576 58.5688 45.2104 60.4997 45.2104C62.4306 45.2104 64.3275 46.0576 65.9997 47.6667L73.333 55" stroke="#E8EFFA" stroke-width="4" stroke-linecap="round" stroke-linejoin="round"/>
</svg>
